<svg width="81" height="82" viewBox="0 0 81 82" fill="none" xmlns="http://www.w3.org/2000/svg">
<path d="M31.0118 32.3116C31.0118 34.1331 32.2505 35.7153 34.02 36.1524L37.3819 36.9955V28.3459H34.9879C32.8021 28.3459 31.0223 30.1258 31.0223 32.3116H31.0118Z" fill="#478BF9"/>
<path d="M43.7292 53.7846H46.1233C48.3091 53.7846 50.089 52.0047 50.089 49.8189C50.089 47.9974 48.8503 46.4153 47.0808 45.9781L43.7189 45.135V53.7846H43.7292Z" fill="#478BF9"/>
<path d="M40.5562 0.742188C18.3234 0.742188 0.222778 18.8324 0.222778 41.0756C0.222778 63.3189 18.313 81.4091 40.5562 81.4091C62.7995 81.4091 80.8897 63.3189 80.8897 41.0756C80.8897 18.8324 62.7995 0.742188 40.5562 0.742188ZM56.4607 34.7056H50.1009V31.5205C50.1009 29.7719 48.675 28.3355 46.9159 28.3355H43.7309V38.5776L48.6334 39.8058C53.234 40.9612 56.4502 45.0726 56.4502 49.8189C56.4502 55.5125 51.8184 60.1443 46.1249 60.1443H43.7309V68.2005H37.3712V60.1443H34.1862C28.9194 60.1443 24.6415 55.8663 24.6415 50.5996V47.4145H31.0011V50.5996C31.0011 52.3482 32.4271 53.7846 34.1862 53.7846H37.3712V43.5425L32.4687 42.3143C27.8681 41.1589 24.6519 37.0475 24.6519 32.3012C24.6519 26.6077 29.2837 21.9758 34.9772 21.9758H37.3712V13.9196H43.7309V21.9758H46.9159C52.1827 21.9758 56.4607 26.2538 56.4607 31.5205V34.7056Z" fill="#478BF9"/>
</svg>
