<svg width="100" height="100" viewBox="0 121 100 100" fill="none" xmlns="http://www.w3.org/2000/svg">
<path d="M99.1109 171.065C99.1109 198.388 76.878 220.621 49.5554 220.621C22.2327 220.621 -0.00012207 198.388 -0.00012207 171.065C-0.00012207 143.743 22.2327 121.51 49.5554 121.51C76.878 121.51 99.1109 143.743 99.1109 171.065ZM3.57003 171.065C3.57003 196.421 24.1999 217.051 49.5554 217.051C74.9108 217.051 95.5407 196.421 95.5407 171.065C95.5407 145.71 74.9108 125.08 49.5554 125.08C24.1999 125.08 3.57003 145.71 3.57003 171.065Z" fill="#478BF9"/>
<path d="M40.0118 162.312C40.0118 164.133 41.2505 165.715 43.02 166.152L46.3819 166.996V158.346H43.9879C41.8021 158.346 40.0223 160.126 40.0223 162.312H40.0118Z" fill="#478BF9"/>
<path d="M52.7292 183.785H55.1233C57.3091 183.785 59.089 182.005 59.089 179.819C59.089 177.997 57.8503 176.415 56.0808 175.978L52.7189 175.135V183.785H52.7292Z" fill="#478BF9"/>
<path d="M49.5562 130.742C27.3234 130.742 9.22278 148.832 9.22278 171.076C9.22278 193.319 27.313 211.409 49.5562 211.409C71.7995 211.409 89.8897 193.319 89.8897 171.076C89.8897 148.832 71.7995 130.742 49.5562 130.742ZM65.4607 164.706H59.1009V161.521C59.1009 159.772 57.675 158.335 55.9159 158.335H52.7309V168.578L57.6334 169.806C62.234 170.961 65.4502 175.073 65.4502 179.819C65.4502 185.512 60.8184 190.144 55.1249 190.144H52.7309V198.201H46.3712V190.144H43.1862C37.9194 190.144 33.6415 185.866 33.6415 180.6V177.415H40.0011V180.6C40.0011 182.348 41.4271 183.785 43.1862 183.785H46.3712V173.542L41.4687 172.314C36.8681 171.159 33.6519 167.048 33.6519 162.301C33.6519 156.608 38.2837 151.976 43.9772 151.976H46.3712V143.92H52.7309V151.976H55.9159C61.1827 151.976 65.4607 156.254 65.4607 161.521V164.706Z" fill="#478BF9"/>
</svg>
